<svg id="Layer_1" data-name="Layer 1" xmlns="http://www.w3.org/2000/svg" viewBox="0 0 75 75"><defs><style>.cls-1{fill:#455a64;}.cls-2{fill:#55a6ba;}.cls-3{fill:#fff;}</style></defs><title>logo</title><path class="cls-1" d="M37.5,0h0A37.51,37.51,0,0,1,75,37.5h0A37.51,37.51,0,0,1,37.5,75h0A37.51,37.51,0,0,1,0,37.5H0A37.51,37.51,0,0,1,37.5,0Z"/><path class="cls-2" d="M37.5,0A37.5,37.5,0,1,0,75,37.5,37.51,37.51,0,0,0,37.5,0ZM49.9,54.1l-1.7,1.7a2.89,2.89,0,0,0-.9,1.6,25,25,0,0,1-.7,2.6l-2.7,7a27.3,27.3,0,0,1-6.4.7V63.6c.3-1.9-1.2-5.5-3.4-7.7a4.76,4.76,0,0,1-1.4-3.4V47.7a4.58,4.58,0,0,0-2.5-4.2c-2.2-1.2-5.3-2.9-7.4-3.9A25.62,25.62,0,0,1,18,36.3l-.1-.3a20,20,0,0,1-2.7-3.1c-1.4-2.1-3.7-5.5-5.2-7.7A30.44,30.44,0,0,1,25.6,9.8l3.6,1.8a2.44,2.44,0,0,0,3.5-2.2V7.7c1.2-.2,2.4-.3,3.7-.4l4.3,4.3a2.48,2.48,0,0,1,0,3.4l-.7.7-1.6,1.6a1.15,1.15,0,0,0,0,1.7l.7.7a1.15,1.15,0,0,1,0,1.7l-1.2,1.2a1.22,1.22,0,0,1-.9.4H35.6a1.14,1.14,0,0,0-.8.3l-1.5,1.5a.91.91,0,0,0-.3.7,1.48,1.48,0,0,0,.1.7l2.4,4.7a1.26,1.26,0,0,1-1.1,1.8h-.9a1.14,1.14,0,0,1-.8-.3l-1.4-1.2a1.61,1.61,0,0,0-1.1-.5,1.67,1.67,0,0,0-1.2.1l-4.7,1.6a1.6,1.6,0,0,0-.9.7c-.3.1-.4.5-.4.9a1.78,1.78,0,0,0,1,1.6l1.7.8a10.39,10.39,0,0,0,4.6,1.1c1.6,0,3.4,4.1,4.8,4.8H45.2a4.76,4.76,0,0,1,3.4,1.4l2.1,2.1a4.53,4.53,0,0,1,1.4,3.3,8.57,8.57,0,0,1-.5,2.7,12.42,12.42,0,0,1-1.7,2.3ZM63.1,40.3A3.59,3.59,0,0,1,61,38.8l-2.7-4.1a3.63,3.63,0,0,1,0-4l3-4.4a3.23,3.23,0,0,1,1.4-1.2l2-1a30.51,30.51,0,0,1,3.2,13.5,25.61,25.61,0,0,1-.3,3.9Z"/><path class="cls-3" d="M40.29,32.48,41.8,34.8a2.93,2.93,0,0,0,4.8.7L62.2,20.1a5.48,5.48,0,0,0,.9-6.3l-.5-.9a2.93,2.93,0,0,0-4.8-.7L42.2,27.6C40.6,29.1,39.19,30.58,40.29,32.48Z"/><path class="cls-3" d="M52.3,43.7h0a3.26,3.26,0,0,0,5.4.8L68.4,33.9a6.21,6.21,0,0,0,1-7.1h0A3.26,3.26,0,0,0,64,26L53.4,36.6A6.25,6.25,0,0,0,52.3,43.7Z"/><path class="cls-3" d="M44.2,67.4h0a4.48,4.48,0,0,1-4.5-4.5l.1-29.5c0-3.53.35-4,2.32-4.3l2.18-.2a4.48,4.48,0,0,1,4.5,4.5l-.1,29.5A4.48,4.48,0,0,1,44.2,67.4Z"/><path class="cls-3" d="M34.8,33.9l-.5.9a2.93,2.93,0,0,1-4.8.7L13.9,20.1a5.48,5.48,0,0,1-.9-6.3l.5-.9a2.93,2.93,0,0,1,4.8-.7L33.9,27.6C37.66,31.44,35.9,32,34.8,33.9Z"/><path class="cls-3" d="M23.8,43.7h0a3.26,3.26,0,0,1-5.4.8L7.7,33.9a6.21,6.21,0,0,1-1-7.1h0a3.26,3.26,0,0,1,5.4-.8L22.8,36.6A6.4,6.4,0,0,1,23.8,43.7Z"/><path class="cls-3" d="M32,67.4h0a4.48,4.48,0,0,0,4.5-4.5l-.1-29.5c.1-5.34-3-4.55-4.5-4.5h0a4.48,4.48,0,0,0-4.5,4.5l.1,29.5A4.48,4.48,0,0,0,32,67.4Z"/></svg>